<?xml version="1.0" standalone="no"?>
<!DOCTYPE svg PUBLIC "-//W3C//DTD SVG 20010904//EN"
 "http://www.w3.org/TR/2001/REC-SVG-20010904/DTD/svg10.dtd">
<svg version="1.0" xmlns="http://www.w3.org/2000/svg"
 width="1279.000000pt" height="1280.000000pt" viewBox="0 0 1279.000000 1280.000000"
 preserveAspectRatio="xMidYMid meet">

<g transform="translate(0.000000,1280.000000) scale(0.100000,-0.100000)"
fill="#000000" stroke="none">
<path d="M3120 9699 c-47 -4 -173 -7 -281 -8 -108 -1 -237 -4 -286 -7 l-91 -7
42 -57 c22 -32 77 -111 121 -175 44 -64 109 -158 145 -208 36 -51 73 -103 82
-117 24 -35 140 -200 228 -325 41 -59 107 -152 146 -208 38 -56 130 -187 204
-292 192 -273 454 -646 522 -745 33 -47 88 -125 123 -175 35 -49 94 -133 130
-185 36 -52 94 -135 129 -185 34 -49 134 -191 220 -315 86 -124 173 -247 192
-275 19 -27 71 -101 114 -164 44 -63 80 -121 80 -131 0 -15 -78 -132 -183
-275 -20 -27 -83 -113 -138 -190 -56 -77 -115 -158 -131 -180 -16 -22 -37 -51
-46 -64 -9 -13 -44 -60 -78 -105 -33 -44 -170 -232 -304 -416 -231 -318 -344
-473 -504 -691 -90 -122 -280 -382 -318 -434 -16 -22 -60 -83 -98 -135 -85
-116 -200 -274 -324 -441 -51 -70 -142 -196 -202 -280 -59 -85 -111 -156 -114
-159 -3 -3 -25 -34 -49 -69 l-44 -63 564 7 564 7 23 27 c12 14 54 69 92 121
38 52 96 129 127 171 32 42 99 132 148 200 50 68 107 146 127 174 20 27 50 68
66 90 16 22 69 94 117 160 49 66 115 156 147 200 32 44 133 181 224 305 91
124 177 243 193 265 35 51 307 424 419 575 127 171 193 261 298 405 52 72 123
168 159 215 120 159 580 778 650 875 39 54 111 153 160 221 50 68 130 179 179
246 49 68 120 166 158 218 296 406 363 499 384 530 19 30 114 160 366 504 40
55 221 305 441 609 119 165 176 244 262 362 224 308 410 574 404 579 -2 2
-252 1 -555 -2 l-551 -5 -185 -246 c-102 -135 -259 -345 -348 -466 -90 -121
-276 -371 -413 -555 -138 -184 -336 -450 -440 -590 -500 -671 -621 -830 -631
-830 -13 0 -51 49 -142 180 -32 47 -83 120 -114 162 -30 43 -75 108 -100 144
-25 36 -50 71 -55 77 -6 7 -45 62 -86 122 -96 140 -146 212 -176 251 -12 17
-23 36 -23 42 0 6 -3 12 -8 14 -10 4 -164 221 -287 403 -18 28 -65 95 -104
150 -38 55 -90 129 -115 165 -24 36 -107 154 -183 262 -76 109 -207 295 -290
415 -84 120 -173 244 -198 276 l-45 57 -213 -2 c-116 0 -250 -4 -297 -9z"/>
<path d="M9108 9669 c-19 -24 -57 -75 -83 -114 -27 -38 -72 -101 -100 -140
-61 -83 -314 -436 -335 -469 -18 -26 -190 -269 -269 -378 -31 -42 -90 -125
-131 -184 -125 -178 -161 -229 -357 -504 -88 -124 -216 -304 -285 -400 -68
-96 -147 -206 -174 -244 -27 -38 -64 -90 -82 -115 -18 -25 -49 -71 -69 -101
-21 -30 -40 -57 -44 -60 -3 -3 -28 -37 -55 -76 -27 -39 -98 -140 -159 -225
-60 -85 -176 -248 -257 -363 l-146 -209 71 -96 c39 -53 121 -163 182 -246 135
-182 281 -379 417 -562 55 -76 126 -172 157 -213 295 -397 496 -669 626 -845
85 -115 228 -309 317 -429 90 -121 238 -321 330 -445 92 -124 233 -314 313
-423 l146 -196 57 -6 c78 -8 1122 -20 1122 -13 0 3 -39 62 -87 131 -49 69
-131 186 -183 261 -52 75 -131 189 -176 253 -74 107 -374 533 -639 907 -58 83
-147 209 -197 280 -284 404 -537 765 -648 920 -302 426 -483 688 -488 707 -4
15 343 544 679 1036 46 67 95 140 109 162 25 40 283 423 525 780 243 359 547
811 822 1225 l274 410 -248 6 c-136 4 -395 10 -574 14 l-325 8 -36 -44z"/>
</g>
</svg>
