{
    "asset" : {
        "generator" : "Khronos glTF Blender I/O v3.2.43",
        "version" : "2.0"
    },
    "scene" : 0,
    "scenes" : [
        {
            "name" : "Scene",
            "nodes" : [
                0
            ]
        }
    ],
    "nodes" : [
        {
            "mesh" : 0,
            "name" : "Cube.003",
            "rotation" : [
                0.18755756318569183,
                -0.9469846487045288,
                0.07695800065994263,
                0.24923820793628693
            ],
            "scale" : [
                15.785331726074219,
                15.785331726074219,
                15.785332679748535
            ],
            "translation" : [
                -0.8235340118408203,
                1.4923722743988037,
                -0.05834883823990822
            ]
        }
    ],
    "materials" : [
        {
            "doubleSided" : true,
            "name" : "Material.020",
            "pbrMetallicRoughness" : {
                "baseColorFactor" : [
                    0.04757598415017128,
                    0.04757598415017128,
                    0.04757598415017128,
                    1
                ],
                "metallicFactor" : 0.8409091234207153,
                "roughnessFactor" : 0.2909091114997864
            }
        },
        {
            "doubleSided" : true,
            "emissiveFactor" : [
                0.032495539635419846,
                1,
                1
            ],
            "name" : "Material.017",
            "pbrMetallicRoughness" : {
                "baseColorFactor" : [
                    0,
                    0,
                    0,
                    1
                ]
            }
        },
        {
            "doubleSided" : true,
            "name" : "Material.016",
            "pbrMetallicRoughness" : {
                "baseColorFactor" : [
                    0,
                    0,
                    0,
                    1
                ],
                "metallicFactor" : 0,
                "roughnessFactor" : 0
            }
        },
        {
            "doubleSided" : true,
            "emissiveFactor" : [
                0.6115665435791016,
                1,
                1
            ],
            "name" : "Material.015",
            "pbrMetallicRoughness" : {
                "baseColorFactor" : [
                    0,
                    0,
                    0,
                    1
                ]
            }
        },
        {
            "doubleSided" : true,
            "name" : "Material.014",
            "pbrMetallicRoughness" : {
                "baseColorFactor" : [
                    0.021979346871376038,
                    0.021979346871376038,
                    0.021979346871376038,
                    1
                ],
                "metallicFactor" : 0
            }
        }
    ],
    "meshes" : [
        {
            "name" : "Cube.003",
            "primitives" : [
                {
                    "attributes" : {
                        "POSITION" : 0,
                        "NORMAL" : 1,
                        "TEXCOORD_0" : 2
                    },
                    "indices" : 3,
                    "material" : 0
                },
                {
                    "attributes" : {
                        "POSITION" : 4,
                        "NORMAL" : 5,
                        "TEXCOORD_0" : 6
                    },
                    "indices" : 7,
                    "material" : 1
                },
                {
                    "attributes" : {
                        "POSITION" : 8,
                        "NORMAL" : 9,
                        "TEXCOORD_0" : 10
                    },
                    "indices" : 11,
                    "material" : 2
                },
                {
                    "attributes" : {
                        "POSITION" : 12,
                        "NORMAL" : 13,
                        "TEXCOORD_0" : 14
                    },
                    "indices" : 15,
                    "material" : 3
                },
                {
                    "attributes" : {
                        "POSITION" : 16,
                        "NORMAL" : 17,
                        "TEXCOORD_0" : 18
                    },
                    "indices" : 19,
                    "material" : 4
                }
            ]
        }
    ],
    "accessors" : [
        {
            "bufferView" : 0,
            "componentType" : 5126,
            "count" : 3051,
            "max" : [
                0.3156660795211792,
                0.045697301626205444,
                0.36536550521850586
            ],
            "min" : [
                -0.3156629800796509,
                -0.07029594480991364,
                -0.21906185150146484
            ],
            "type" : "VEC3"
        },
        {
            "bufferView" : 1,
            "componentType" : 5126,
            "count" : 3051,
            "type" : "VEC3"
        },
        {
            "bufferView" : 2,
            "componentType" : 5126,
            "count" : 3051,
            "type" : "VEC2"
        },
        {
            "bufferView" : 3,
            "componentType" : 5123,
            "count" : 7092,
            "type" : "SCALAR"
        },
        {
            "bufferView" : 4,
            "componentType" : 5126,
            "count" : 52,
            "max" : [
                0.09154093265533447,
                0.03133721649646759,
                0.08729124069213867
            ],
            "min" : [
                -0.09153783321380615,
                -0.06695768237113953,
                -0.17367982864379883
            ],
            "type" : "VEC3"
        },
        {
            "bufferView" : 5,
            "componentType" : 5126,
            "count" : 52,
            "type" : "VEC3"
        },
        {
            "bufferView" : 6,
            "componentType" : 5126,
            "count" : 52,
            "type" : "VEC2"
        },
        {
            "bufferView" : 7,
            "componentType" : 5123,
            "count" : 108,
            "type" : "SCALAR"
        },
        {
            "bufferView" : 8,
            "componentType" : 5126,
            "count" : 23,
            "max" : [
                0.05643630027770996,
                0.035324618220329285,
                0.06548810005187988
            ],
            "min" : [
                -0.05643320083618164,
                0.009963452816009521,
                -0.037743568420410156
            ],
            "type" : "VEC3"
        },
        {
            "bufferView" : 9,
            "componentType" : 5126,
            "count" : 23,
            "type" : "VEC3"
        },
        {
            "bufferView" : 10,
            "componentType" : 5126,
            "count" : 23,
            "type" : "VEC2"
        },
        {
            "bufferView" : 11,
            "componentType" : 5123,
            "count" : 72,
            "type" : "SCALAR"
        },
        {
            "bufferView" : 12,
            "componentType" : 5126,
            "count" : 64,
            "max" : [
                0.2277003526687622,
                0.02424629032611847,
                0.14198875427246094
            ],
            "min" : [
                -0.2276972532272339,
                -0.044117093086242676,
                -0.20334267616271973
            ],
            "type" : "VEC3"
        },
        {
            "bufferView" : 13,
            "componentType" : 5126,
            "count" : 64,
            "type" : "VEC3"
        },
        {
            "bufferView" : 14,
            "componentType" : 5126,
            "count" : 64,
            "type" : "VEC2"
        },
        {
            "bufferView" : 15,
            "componentType" : 5123,
            "count" : 96,
            "type" : "SCALAR"
        },
        {
            "bufferView" : 16,
            "componentType" : 5126,
            "count" : 184,
            "max" : [
                0.057462215423583984,
                0.016181305050849915,
                0.2628927230834961
            ],
            "min" : [
                -0.057459115982055664,
                -0.024517059326171875,
                -0.12005090713500977
            ],
            "type" : "VEC3"
        },
        {
            "bufferView" : 17,
            "componentType" : 5126,
            "count" : 184,
            "type" : "VEC3"
        },
        {
            "bufferView" : 18,
            "componentType" : 5126,
            "count" : 184,
            "type" : "VEC2"
        },
        {
            "bufferView" : 19,
            "componentType" : 5123,
            "count" : 360,
            "type" : "SCALAR"
        }
    ],
    "bufferViews" : [
        {
            "buffer" : 0,
            "byteLength" : 36612,
            "byteOffset" : 0
        },
        {
            "buffer" : 0,
            "byteLength" : 36612,
            "byteOffset" : 36612
        },
        {
            "buffer" : 0,
            "byteLength" : 24408,
            "byteOffset" : 73224
        },
        {
            "buffer" : 0,
            "byteLength" : 14184,
            "byteOffset" : 97632
        },
        {
            "buffer" : 0,
            "byteLength" : 624,
            "byteOffset" : 111816
        },
        {
            "buffer" : 0,
            "byteLength" : 624,
            "byteOffset" : 112440
        },
        {
            "buffer" : 0,
            "byteLength" : 416,
            "byteOffset" : 113064
        },
        {
            "buffer" : 0,
            "byteLength" : 216,
            "byteOffset" : 113480
        },
        {
            "buffer" : 0,
            "byteLength" : 276,
            "byteOffset" : 113696
        },
        {
            "buffer" : 0,
            "byteLength" : 276,
            "byteOffset" : 113972
        },
        {
            "buffer" : 0,
            "byteLength" : 184,
            "byteOffset" : 114248
        },
        {
            "buffer" : 0,
            "byteLength" : 144,
            "byteOffset" : 114432
        },
        {
            "buffer" : 0,
            "byteLength" : 768,
            "byteOffset" : 114576
        },
        {
            "buffer" : 0,
            "byteLength" : 768,
            "byteOffset" : 115344
        },
        {
            "buffer" : 0,
            "byteLength" : 512,
            "byteOffset" : 116112
        },
        {
            "buffer" : 0,
            "byteLength" : 192,
            "byteOffset" : 116624
        },
        {
            "buffer" : 0,
            "byteLength" : 2208,
            "byteOffset" : 116816
        },
        {
            "buffer" : 0,
            "byteLength" : 2208,
            "byteOffset" : 119024
        },
        {
            "buffer" : 0,
            "byteLength" : 1472,
            "byteOffset" : 121232
        },
        {
            "buffer" : 0,
            "byteLength" : 720,
            "byteOffset" : 122704
        }
    ],
    "buffers" : [
        {
            "byteLength" : 123424,
            "uri" : "room.bin"
        }
    ]
}
