{
    "asset" : {
        "generator" : "Khronos glTF Blender I/O v3.2.43",
        "version" : "2.0"
    },
    "scene" : 0,
    "scenes" : [
        {
            "name" : "Scene",
            "nodes" : [
                0
            ]
        }
    ],
    "nodes" : [
        {
            "mesh" : 0,
            "name" : "SHIP",
            "rotation" : [
                0,
                0.013961187563836575,
                0,
                0.9999025464057922
            ],
            "scale" : [
                0.7523466348648071,
                0.7523466348648071,
                0.7523466348648071
            ]
        }
    ],
    "materials" : [
        {
            "doubleSided" : true,
            "name" : "Material.004",
            "pbrMetallicRoughness" : {
                "baseColorFactor" : [
                    0.007117781788110733,
                    0.007117781788110733,
                    0.007117781788110733,
                    1
                ],
                "metallicFactor" : 0.7406416535377502,
                "roughnessFactor" : 0.2501336932182312
            }
        },
        {
            "doubleSided" : true,
            "emissiveFactor" : [
                1,
                1,
                1
            ],
            "name" : "Material.001",
            "pbrMetallicRoughness" : {
                "baseColorFactor" : [
                    0,
                    0,
                    0,
                    1
                ]
            }
        },
        {
            "doubleSided" : true,
            "emissiveFactor" : [
                1,
                1,
                1
            ],
            "name" : "Material.006",
            "pbrMetallicRoughness" : {
                "baseColorFactor" : [
                    0,
                    0,
                    0,
                    1
                ]
            }
        },
        {
            "doubleSided" : true,
            "emissiveFactor" : [
                1,
                1,
                1
            ],
            "name" : "Material.007",
            "pbrMetallicRoughness" : {
                "baseColorFactor" : [
                    0,
                    0,
                    0,
                    1
                ]
            }
        }
    ],
    "meshes" : [
        {
            "name" : "Cube.002",
            "primitives" : [
                {
                    "attributes" : {
                        "POSITION" : 0,
                        "NORMAL" : 1,
                        "TEXCOORD_0" : 2
                    },
                    "indices" : 3,
                    "material" : 0
                },
                {
                    "attributes" : {
                        "POSITION" : 4,
                        "NORMAL" : 5,
                        "TEXCOORD_0" : 6
                    },
                    "indices" : 7,
                    "material" : 1
                },
                {
                    "attributes" : {
                        "POSITION" : 8,
                        "NORMAL" : 9,
                        "TEXCOORD_0" : 10
                    },
                    "indices" : 11,
                    "material" : 2
                },
                {
                    "attributes" : {
                        "POSITION" : 12,
                        "NORMAL" : 13,
                        "TEXCOORD_0" : 14
                    },
                    "indices" : 15,
                    "material" : 3
                }
            ]
        }
    ],
    "accessors" : [
        {
            "bufferView" : 0,
            "componentType" : 5126,
            "count" : 18272,
            "max" : [
                11.125349044799805,
                2.7198634147644043,
                3.6674253940582275
            ],
            "min" : [
                -5.669924259185791,
                -1.9617431163787842,
                -3.6674253940582275
            ],
            "type" : "VEC3"
        },
        {
            "bufferView" : 1,
            "componentType" : 5126,
            "count" : 18272,
            "type" : "VEC3"
        },
        {
            "bufferView" : 2,
            "componentType" : 5126,
            "count" : 18272,
            "type" : "VEC2"
        },
        {
            "bufferView" : 3,
            "componentType" : 5123,
            "count" : 27534,
            "type" : "SCALAR"
        },
        {
            "bufferView" : 4,
            "componentType" : 5126,
            "count" : 184,
            "max" : [
                6.250779151916504,
                2.2405030727386475,
                3.4532763957977295
            ],
            "min" : [
                -5.333498477935791,
                -0.630483865737915,
                -3.4532763957977295
            ],
            "type" : "VEC3"
        },
        {
            "bufferView" : 5,
            "componentType" : 5126,
            "count" : 184,
            "type" : "VEC3"
        },
        {
            "bufferView" : 6,
            "componentType" : 5126,
            "count" : 184,
            "type" : "VEC2"
        },
        {
            "bufferView" : 7,
            "componentType" : 5123,
            "count" : 276,
            "type" : "SCALAR"
        },
        {
            "bufferView" : 8,
            "componentType" : 5126,
            "count" : 168,
            "max" : [
                11.099981307983398,
                1.4700065851211548,
                3.598264455795288
            ],
            "min" : [
                -3.6695244312286377,
                -1.9617431163787842,
                -3.598264455795288
            ],
            "type" : "VEC3"
        },
        {
            "bufferView" : 9,
            "componentType" : 5126,
            "count" : 168,
            "type" : "VEC3"
        },
        {
            "bufferView" : 10,
            "componentType" : 5126,
            "count" : 168,
            "type" : "VEC2"
        },
        {
            "bufferView" : 11,
            "componentType" : 5123,
            "count" : 252,
            "type" : "SCALAR"
        },
        {
            "bufferView" : 12,
            "componentType" : 5126,
            "count" : 32,
            "max" : [
                0.40752238035202026,
                -0.11951050907373428,
                0.8651717305183411
            ],
            "min" : [
                -2.54201078414917,
                -1.2000601291656494,
                -0.8651717305183411
            ],
            "type" : "VEC3"
        },
        {
            "bufferView" : 13,
            "componentType" : 5126,
            "count" : 32,
            "type" : "VEC3"
        },
        {
            "bufferView" : 14,
            "componentType" : 5126,
            "count" : 32,
            "type" : "VEC2"
        },
        {
            "bufferView" : 15,
            "componentType" : 5123,
            "count" : 48,
            "type" : "SCALAR"
        }
    ],
    "bufferViews" : [
        {
            "buffer" : 0,
            "byteLength" : 219264,
            "byteOffset" : 0
        },
        {
            "buffer" : 0,
            "byteLength" : 219264,
            "byteOffset" : 219264
        },
        {
            "buffer" : 0,
            "byteLength" : 146176,
            "byteOffset" : 438528
        },
        {
            "buffer" : 0,
            "byteLength" : 55068,
            "byteOffset" : 584704
        },
        {
            "buffer" : 0,
            "byteLength" : 2208,
            "byteOffset" : 639772
        },
        {
            "buffer" : 0,
            "byteLength" : 2208,
            "byteOffset" : 641980
        },
        {
            "buffer" : 0,
            "byteLength" : 1472,
            "byteOffset" : 644188
        },
        {
            "buffer" : 0,
            "byteLength" : 552,
            "byteOffset" : 645660
        },
        {
            "buffer" : 0,
            "byteLength" : 2016,
            "byteOffset" : 646212
        },
        {
            "buffer" : 0,
            "byteLength" : 2016,
            "byteOffset" : 648228
        },
        {
            "buffer" : 0,
            "byteLength" : 1344,
            "byteOffset" : 650244
        },
        {
            "buffer" : 0,
            "byteLength" : 504,
            "byteOffset" : 651588
        },
        {
            "buffer" : 0,
            "byteLength" : 384,
            "byteOffset" : 652092
        },
        {
            "buffer" : 0,
            "byteLength" : 384,
            "byteOffset" : 652476
        },
        {
            "buffer" : 0,
            "byteLength" : 256,
            "byteOffset" : 652860
        },
        {
            "buffer" : 0,
            "byteLength" : 96,
            "byteOffset" : 653116
        }
    ],
    "buffers" : [
        {
            "byteLength" : 653212,
            "uri" : "data:application/octet-stream;base64,"
        }
    ]
}
